<?xml version="1.0" encoding="UTF-8"?>
<svg id="Layer_2" width="20" height="20" data-name="Layer 2" xmlns="http://www.w3.org/2000/svg" viewBox="0 0 80.87 80.87">
  <defs>
    <style>
      .cls-1 {
        fill: #ffffff;
        stroke-width: 0px;
      }
      .background {
        fill: #2700E5;
      }
    </style>
  </defs>
  <rect class="background" x="0" y="0" width="80.87" height="80.87" />
  <g id="Layer_1-2" data-name="Layer 1" transform="scale(0.8) translate(8.087, 8.087)">
    <g>
      <path class="cls-1" d="M57.34,27.51c-.79.79-.79,2.07,0,2.86l8.64,8.64c.79.79.79,2.07,0,2.86l-8.64,8.64c-.79.79-.79,2.07,0,2.86l4.29,4.29c.79.79,2.07.79,2.86,0l15.79-15.79c.79-.79.79-2.07,0-2.86l-15.79-15.79c-.79-.79-2.07-.79-2.86,0l-4.29,4.29Z"/>
      <path class="cls-1" d="M50.19,60.51c-.79-.79-2.07-.79-2.86,0l-5.47,5.47c-.79.79-2.07.79-2.86,0l-24.12-24.12c-.79-.79-.79-2.07,0-2.86l24.12-24.12c.79-.79,2.07-.79,2.86,0l5.47,5.47c.79.79,2.07.79,2.86,0l4.29-4.29c.79-.79.79-2.07,0-2.86L41.86.59c-.79-.79-2.07-.79-2.86,0L.59,39.01c-.79.79-.79,2.07,0,2.86l38.41,38.41c.79.79,2.07.79,2.86,0l12.62-12.62c.79-.79.79-2.07,0-2.86l-4.29-4.29Z"/>
      <path class="cls-1" d="M50.54,40.44c0,5.58-4.53,10.11-10.11,10.11-5.58,0-10.11-4.53-10.11-10.11s4.53-10.11,10.11-10.11c5.58,0,10.11,4.53,10.11,10.11Z"/>
    </g>
  </g>
</svg>